<svg xmlns="http://www.w3.org/2000/svg" xmlns:xlink="http://www.w3.org/1999/xlink" viewBox="0 0 500 500" xmlns:v="https://vecta.io/nano"><style><![CDATA[.B{stroke-linejoin:round}.C{stroke:#263238}.D{fill:#fff}.E{fill:none}.F{stroke-linecap:round}.G{fill:#92e3a9}.H{fill:#263238}.I{stroke:#fff}.J{opacity:.3}.K{opacity:.15}]]></style><defs><clipPath id="A"><path d="M156.31 94.11h130.88v211.75H156.31z" class="B C H"/></clipPath><clipPath id="B"><rect x="273.39" y="232.18" width="156.5" height="185.5" rx="60" class="B C G"/></clipPath><clipPath id="C"><rect x="211.33" y="317.68" width="63.06" height="118" rx="15.25" class="B C G"/></clipPath><clipPath id="D"><path d="M213.29 317.68h18a15.25 15.25 0 0 1 15.25 15.25v99.62a3.13 3.13 0 0 1-3.13 3.13h-42.24a3.13 3.13 0 0 1-3.13-3.13v-99.62a15.25 15.25 0 0 1 15.25-15.25z" class="B C G"/></clipPath><clipPath id="E"><path d="M270.39 344.35s-9.67-1-9.67 2.33 4.33 5.33 12.67 5.67a72.41 72.41 0 0 0 14-.67s-11-6-17-7.33z" class="B C D"/></clipPath><clipPath id="F"><path d="M377.58 251c-9.93-12.26-31.54-13.43-45.85-11.1 0 0-15.77 4.68-18.69 11.39s-18.65 36.36-18.65 36.36-18 10.25-24.83 12.88c-5 1.94-12.44 3.29-16 3.86-2.9-1.3-11.09-4.9-13.4-4.9-2.83 0-6.22 5.66-4.53 7.35s7.49 5.51 12.14 5.17c1.61 1.63 43.35-6.28 47.69-6.94s25.48-29.54 25.48-29.54 1.46 26-.29 36.21-5.84 12-4.67 12.56 9.63 5.26 30.66 5.55 31.25-7 31.25-7l8.47-45.56c1.17-9.35 1.15-13.99-8.78-26.29z" class="B C D"/></clipPath><clipPath id="G"><path d="M331.73 239.93S316 244.61 313 251.32s-18.65 36.36-18.65 36.36-6.54 4.15-14.85 8.26a23.66 23.66 0 0 1 5.94 10.82l10-1.66c4.34-.67 25.48-29.54 25.48-29.54s1.46 26-.29 36.21c-1.64 9.55-5.31 11.71-4.83 12.43 1.86 3.68 1.86 6.9 13.11 8 3.69.46 12.64-2.36 17.71-2.29 21 .29 31.25-7 31.25-7l8.47-45.56c1.17-9.35 1.17-14-8.76-26.28S346 237.6 331.73 239.93z" class="B C D"/></clipPath><clipPath id="H"><path d="M312.16,348s20.15,6.71,27.16,6.71,25.7-2.33,25.11,2.63-6.71,5.84-16.06,5S309,356.75,309,356.75Z" class="B C D"/></clipPath><clipPath id="I"><path d="M397.14,317.68h18a15.25,15.25,0,0,1,15.25,15.25v99.62a3.13,3.13,0,0,1-3.13,3.13H385a3.13,3.13,0,0,1-3.13-3.13V332.93a15.25,15.25,0,0,1,15.25-15.25Z" class="B C G"/></clipPath><clipPath id="J"><path d="M322.49 205.77c-3.22 5.46-3.21 12.72-1.26 18.95.59 1.87-3.7 4.7-3.7 5.87s3.21 1.46 3.21 1.46 3.59 11.52 6.51 12.1 15.1-5.09 17.14-6.55 1.76-16.06-1.75-22.2-14.02-14.6-20.15-9.63z" class="B C D"/></clipPath><clipPath id="K"><path d="M383.71,260.08c3.21,4.68,5.55,7.6,3.8,14s-32.42,50.81-36.22,50.52-6.71-2-8.47-7,5-12.85,5-12.85l20.6-36.08s3.91-5.67,8.54-7.57" class="B C D F"/></clipPath><clipPath id="L"><path d="M354 311.52c-2-7-15.21-42.56-15.21-44.72 0-2.34.58-19.86.58-19.86l-1.17-1.75s-2.92-4.09-4.38-4.09-1.75 1.75-2.33 2.63-3.8 1.46-4.39 2.92l-.58 1.46a4.19 4.19 0 0 0-1.75 2.92c-.29 2.05 4.67 13.14 5.26 16.06l9.63 48.48c1.75 7.3 6.13 14 8.18 14 0 0 5.26-3.51 6.72-7.89" class="B C D F"/></clipPath><clipPath id="M"><path d="M354 311.52c-1.14-3.81-4.78-14.07-8.12-23.5-4.42 4.86-7.75 7.41-10.09 8.74l3.87 18.81c1.75 7.3 6.13 14 8.18 14 0 0 5.26-3.51 6.72-7.89" class="B C D F"/></clipPath><path id="N" d="M432.57 148.45s-26.65-50.8-85.49-58.33-99.92 29.16-143.22 48c-22.67 9.85-48.57 6-72.64 10.8-77 15.25-106 110.79-73.91 165.13 27.76 47 76.61 71.5 151 77.15s126.57 12.23 193.18-33.87 62.17-142.08 31.08-208.88z"/><path id="O" d="M213.29 317.68h18a15.25 15.25 0 0 1 15.25 15.25v99.62a3.13 3.13 0 0 1-3.13 3.13h-42.24a3.13 3.13 0 0 1-3.13-3.13v-99.62a15.25 15.25 0 0 1 15.25-15.25z"/><path id="P" d="M270.39 344.35s-9.67-1-9.67 2.33 4.33 5.33 12.67 5.67a72.41 72.41 0 0 0 14-.67s-11-6-17-7.33z"/><path id="Q" d="M377.58 251c-9.93-12.26-31.54-13.43-45.85-11.1 0 0-15.77 4.68-18.69 11.39s-18.65 36.36-18.65 36.36-18 10.25-24.83 12.88c-5 1.94-12.44 3.29-16 3.86-2.9-1.3-11.09-4.9-13.4-4.9-2.83 0-6.22 5.66-4.53 7.35s7.49 5.51 12.14 5.17c1.61 1.63 43.35-6.28 47.69-6.94s25.48-29.54 25.48-29.54 1.46 26-.29 36.21-5.84 12-4.67 12.56 9.63 5.26 30.66 5.55 31.25-7 31.25-7l8.47-45.56c1.17-9.35 1.15-13.99-8.78-26.29z"/><path id="R" d="M284.36 303.41l-26.6 6.72c-3.39.85-7.2 1.49-10.18 1.92h.17c1.36 1.38 31.45-4.07 43.31-6.18z"/><path id="S" d="M331.73 239.93S316 244.61 313 251.32s-18.65 36.36-18.65 36.36-6.54 4.15-14.85 8.26a23.66 23.66 0 0 1 5.94 10.82l10-1.66c4.34-.67 25.48-29.54 25.48-29.54s1.46 26-.29 36.21c-1.64 9.55-5.31 11.71-4.83 12.43 1.86 3.68 1.86 6.9 13.11 8 3.69.46 12.64-2.36 17.71-2.29 21 .29 31.25-7 31.25-7l8.47-45.56c1.17-9.35 1.17-14-8.76-26.28S346 237.6 331.73 239.93z"/><path id="T" d="M312.16,348s20.15,6.71,27.16,6.71,25.7-2.33,25.11,2.63-6.71,5.84-16.06,5S309,356.75,309,356.75Z"/><path id="U" d="M397.14,317.68h18a15.25,15.25,0,0,1,15.25,15.25v99.62a3.13,3.13,0,0,1-3.13,3.13H385a3.13,3.13,0,0,1-3.13-3.13V332.93a15.25,15.25,0,0,1,15.25-15.25Z"/><path id="V" d="M322.49 205.77c-3.22 5.46-3.21 12.72-1.26 18.95.59 1.87-3.7 4.7-3.7 5.87s3.21 1.46 3.21 1.46 3.59 11.52 6.51 12.1 15.1-5.09 17.14-6.55 1.76-16.06-1.75-22.2-14.02-14.6-20.15-9.63z"/><path id="W" d="M344.39 237.6c2.05-1.46 1.76-16.06-1.75-22.2a27 27 0 0 0-8.4-8.55l-5.49 6.39s6.85 11.41 7.61 19.78c.69 7.68-8.88 9.91-10.43 10.22a2.76 2.76 0 0 0 .29.3l1.28.64c3.3.26 14.9-5.18 16.89-6.58z"/><path id="X" d="M383.71,260.08c3.21,4.68,5.55,7.6,3.8,14s-32.42,50.81-36.22,50.52-6.71-2-8.47-7,5-12.85,5-12.85l20.6-36.08s3.91-5.67,8.54-7.57"/><path id="Y" d="M354 311.52c-2-7-15.21-42.56-15.21-44.72 0-2.34.58-19.86.58-19.86l-1.17-1.75s-2.92-4.09-4.38-4.09-1.75 1.75-2.33 2.63-3.8 1.46-4.39 2.92l-.58 1.46a4.19 4.19 0 0 0-1.75 2.92c-.29 2.05 4.67 13.14 5.26 16.06l9.63 48.48c1.75 7.3 6.13 14 8.18 14 0 0 5.26-3.51 6.72-7.89"/><path id="Z" d="M329.13 256.59c0 2.3 10.18 55.23 16.65 71.7a3.37 3.37 0 0 0 2 1.3s5.26-3.51 6.72-7.89l-.5-10.18c-2-7-15.22-42.56-15.22-44.72 0-2.34.58-19.86.58-19.86l-1.17-1.75s-9.06 8.74-9.06 11.4z"/><path id="a" d="M354 311.52c-1.14-3.81-4.78-14.07-8.12-23.5-4.42 4.86-7.75 7.41-10.09 8.74l3.87 18.81c1.75 7.3 6.13 14 8.18 14 0 0 5.26-3.51 6.72-7.89"/></defs><use xlink:href="#N" class="G"/><use xlink:href="#N" opacity=".75" class="D"/><g class="G"><path d="M131.91 211.94s0-5.33-7.47-12.8-12.27-11.74-12.27-11.74-3.74 12.27 3.2 19.74a131.73 131.73 0 0 0 16.54 14.41zm-10.84 33.33s0-5.34-7.47-12.81-12.27-11.74-12.27-11.74-3.74 12.28 3.2 19.75a130.45 130.45 0 0 0 16.54 14.4z"/><path d="M131.44 221s.56-5.3 8.78-11.94 13.45-10.38 13.45-10.38 2.41 12.6-5.27 19.29a131.09 131.09 0 0 1-18 12.58zm-13.1 39.39s1.12-5.22 10-11 14.46-8.91 14.46-8.91 1.08 12.79-7.27 18.64a130.89 130.89 0 0 1-19.19 10.62zm2.47 42.91s0-5.34 7.47-12.81 12.27-11.74 12.27-11.74 3.73 12.27-3.2 19.74a131.73 131.73 0 0 1-16.54 14.41zm-.13 10.47s.76-5.28-5.57-13.74-10.48-13.36-10.48-13.36-5.44 11.61.36 20a131.12 131.12 0 0 0 14.33 16.62zm-7.37 31.04s0-5.34 7.47-12.81 12.28-11.74 12.28-11.74 3.73 12.28-3.2 19.75a131 131 0 0 1-16.55 14.4zM118.3 373s-1.35-5.16 4-14.28 8.9-14.47 8.9-14.47 6.72 10.93 1.9 19.91a131.2 131.2 0 0 1-12.35 18.13z"/></g><g class="B C E F"><path d="M132.59,210.58a152.88,152.88,0,0,1-2.05,16.56c-2.95,15.26-10.33,25.1-13.29,38.89s5.53,31.53,3.26,49.23-9.16,27.54-7.2,39.35,12.31,43.81,12.31,43.81"/><path d="M131.37 224.58l8.05-6.18m-7.68-.94l-3.37-5.99m-10.67 53.92l13.67-10.11m-10.3-.41s-5.62-11-12-18.31m12 74.33a83.31 83.31 0 0 1 14.42-19.29m-15.73 26.78a94.08 94.08 0 0 0-7.3-13.86l-4.5-6.55m5.35 56.64a89.69 89.69 0 0 1 6.07-12.27 78.39 78.39 0 0 1 7.87-10.3m-6.51 50.2s-.79-6.39 2-11.82 6-12.54 7.31-15.35"/></g><g class="G"><path d="M83 283.23s-.58-3.35 3.3-8.84 6.42-8.7 6.42-8.7 3.67 7.29.13 12.73A83.39 83.39 0 0 1 84 289.25zM93.41 303s-.58-3.35 3.29-8.84 6.42-8.7 6.42-8.7 3.68 7.29.14 12.73A83.39 83.39 0 0 1 94.45 309z"/><path d="M84.27 288.88s-.93-3.27-6.8-6.54-9.56-5-9.56-5-.15 8.16 5.4 11.53A84.24 84.24 0 0 0 86 294.76zm12.49 23.25s-1.27-3.15-7.45-5.78-10-4-10-4 .71 8.13 6.58 10.9A83.46 83.46 0 0 0 99 317.8zm3.11 27.18s-.58-3.35-6.07-7.22-9-6-9-6-1 8.1 4.15 12a83.65 83.65 0 0 0 11.94 7.24zm1.22 6.55s-1-3.23 2-9.22 5.12-9.52 5.12-9.52 4.68 6.7 2 12.58a83.13 83.13 0 0 1-7.18 12zm9.37 26.99s.39-3.37 5.66-7.55 8.61-6.53 8.61-6.53 1.47 8-3.46 12.25a83.27 83.27 0 0 1-11.5 7.9zm-1.38-8.32s-.58-3.35-6.08-7.22-9-6-9-6-1 8.1 4.15 12a83.65 83.65 0 0 0 11.94 7.24zm-.08 18.18s.29-3.38-4-8.52-7.16-8.1-7.16-8.1-3 7.58 1 12.69a83.37 83.37 0 0 0 9.72 10z"/></g><g class="B C E F"><path d="M82.42,282.44a96.5,96.5,0,0,0,3.08,10.17c3.51,9.25,9.21,14.62,12.55,22.94s0,20.37,3.31,31.23,8.73,16.27,8.78,23.9-3,28.8-3,28.8"/><path d="M84.7 291.09l-5.71-3m4.71-1.42l1.46-4.12m12.55 32.65l-9.67-4.85m6.41-1.35a68.49 68.49 0 0 1 5.55-12.81m.53 47.91a52.94 52.94 0 0 0-11.13-10.53m12.77 15.08a59.33 59.33 0 0 1 3.07-9.48l2.11-4.6m2.53 41.89s3.79-4.65 6.15-6.39a33.43 33.43 0 0 0 4-3.47m-9.89 4.08a57.45 57.45 0 0 0-5.14-7 50 50 0 0 0-6-5.68m9.49 30.8a14.56 14.56 0 0 0-2.55-7.19c-2.35-3.1-5.12-7.21-6.25-8.83"/></g><g class="H B C"><path d="M91.92 395.78h48.87a0 0 0 0 1 0 0v16.9a3.5 3.5 0 0 1-3.5 3.5H95.42a3.5 3.5 0 0 1-3.5-3.5v-16.9a0 0 0 0 1 0 0z"/><path d="M140.36 402.16H91.92a3.83 3.83 0 0 1-3.83-3.83h0a3.83 3.83 0 0 1 3.83-3.82h48.44a3.82 3.82 0 0 1 3.82 3.82h0a3.82 3.82 0 0 1-3.82 3.83z"/></g><g class="E F B"><path d="M93.84 402.33h35.18m3.31 0h5.79" class="I"/><path d="M34.14 408.26h425.91m-425.91-149h425.91m-31-.18V84.68m-13 174.4V84.68m-73.5 174.4V84.68m-13 174.4V84.68m-73.5 174.4V84.68m-13 174.4V84.68m-73.5 174.4V84.68m-13 174.4V84.68m-73.5 174.4V84.68m-13 174.4V84.68" class="C"/></g><rect x="149.93" y="64.32" width="143.65" height="271.34" rx="7.67" class="B C D"/><path d="M156.31 94.11h130.88v211.75H156.31z" class="H"/><g clip-path="url(#A)"><g class="D"><path d="M287.19 234.71l-122 71.15h122v-71.15z" class="J"/><rect x="168.49" y="170.98" width="106.53" height="17.85" rx="5"/></g><g class="G"><path d="M217.21 174.22h9.08v11.36h-9.08zm-10.96 0h9.08v11.36h-9.08zm-10.97 0h9.08v11.36h-9.08zm-10.97 0h9.08v11.36h-9.08zm-1.89 0H178a5.68 5.68 0 1 0 0 11.36h4.47zm45.76 0h9.08v11.36h-9.08z"/></g><g class="D"><path d="M193.27 156h.57v7.2h4.43v.51h-5zm5.55 3.84a4 4 0 1 1 4 3.9 3.85 3.85 0 0 1-4-3.9zm7.43 0a3.44 3.44 0 1 0-3.43 3.38 3.32 3.32 0 0 0 3.43-3.38zm7.18 1.68H209l-1 2.17h-.6l3.54-7.71h.56l3.54 7.71h-.6zm-.21-.47l-2-4.45-2 4.45zm3.2-5.05h3.05a3.86 3.86 0 1 1 0 7.71h-3.05zm3 7.2a3.35 3.35 0 1 0 0-6.69H217v6.69zm6.08-7.2h.57v7.71h-.57zm9.5 0v7.71h-.46l-5.23-6.71v6.69h-.56V156h.47l5.24 6.69V156zm8.2 3.87h.54v2.88a4 4 0 0 1-2.75 1 3.91 3.91 0 1 1 0-7.81 3.78 3.78 0 0 1 2.78 1.06l-.36.37a3.24 3.24 0 0 0-2.41-.91 3.39 3.39 0 1 0 2.19 6.07zm2.41 3.39a.47.47 0 1 1 .93 0 .47.47 0 1 1-.93 0zm2.2 0a.47.47 0 1 1 .93 0 .47.47 0 1 1-.93 0zm2.19 0a.47.47 0 1 1 .93 0 .47.47 0 1 1-.93 0z"/></g></g><path d="M156.31 94.11h130.88v211.75H156.31z" class="B C E"/><path d="M236,79.29H207.52a1.94,1.94,0,0,1-1.94-1.94h0a1.94,1.94,0,0,1,1.94-1.94H236a1.94,1.94,0,0,1,1.94,1.94h0A1.94,1.94,0,0,1,236,79.29Z" class="H"/><path d="M229.51 317.82a7.76 7.76 0 1 0-7.76 7.76 7.75 7.75 0 0 0 7.76-7.76z" stroke-width=".704" class="B C D"/><g class="H"><path d="M217.82 313.89h7.87v7.87h-7.87z"/><ellipse cx="296.02" cy="431.62" rx="176.8" ry="16.18" class="B C"/></g><rect x="273.39" y="232.18" width="156.5" height="185.5" rx="60" class="G"/><g clip-path="url(#B)"><path d="M378.48 232.8l-2.06-.26-1-.09-1.88-.15-.89-.05c-.92 0-1.84-.07-2.77-.07h-19.06l-.45 123.25s33.72-.5 36.69-2.48 13.88-76.36 12.89-85.28-20.82-22.81-20.82-22.81v-7.17A60 60 0 0 1 414 292.18v65.5a60 60 0 0 1-60 60h15.87a60 60 0 0 0 60-60v-65.5a60 60 0 0 0-51.39-59.38z" class="J"/></g><rect x="273.39" y="232.18" width="156.5" height="185.5" rx="60" class="B C E"/><rect x="211.33" y="317.68" width="63.06" height="118" rx="15.25" class="G"/><g clip-path="url(#C)"><rect x="211.33" y="317.68" width="63.06" height="118" rx="15.25" class="J"/></g><rect x="211.33" y="317.68" width="63.06" height="118" rx="15.25" class="B C E"/><use xlink:href="#O" class="G"/><g clip-path="url(#D)"><path d="M231.29 317.68h-7.66a15.25 15.25 0 0 1 15.25 15.25v87.5a15.25 15.25 0 0 1-15.25 15.25h20.27a2.64 2.64 0 0 0 2.64-2.65v-100.1a15.25 15.25 0 0 0-15.25-15.25z" class="J"/></g><g class="B C"><use xlink:href="#O" class="E"/><path d="M255.89 350.68h128.22a13 13 0 0 1 13 13v68.62a3.38 3.38 0 0 1-3.38 3.38H246.27a3.38 3.38 0 0 1-3.38-3.38v-68.62a13 13 0 0 1 13-13z" class="G"/><path d="M242.89 390.18h139.74" class="E F"/></g><use xlink:href="#P" class="D"/><g clip-path="url(#E)"><use xlink:href="#P" class="K"/></g><g class="B C"><use xlink:href="#P" class="E"/><path d="M318.29 324s-9.63 1.17-11.39 1.17-37.38-14.31-44.38-14.31-9.93 14.89.29 24.53S313 357 334.65 355.87s36.21-16.06 36.21-26.28-23.95-3.51-33.58-6.14-18.99.55-18.99.55z" class="H"/></g><path d="M313,328.13s9,5.84,11.68,11.09" class="B E F I"/><use xlink:href="#Q" class="D"/><g clip-path="url(#F)"><use xlink:href="#R" class="G"/><use xlink:href="#R" opacity=".5" class="D"/></g><g class="B C"><use xlink:href="#Q" class="E"/><path d="M253.54,304.42s-3.13-5-4.29-6-3.49-1.66-5.65-2.49-5-4-5.15-3.16-.5,1.83,1.33,3.32a23,23,0,0,0,3.82,2.5s-2.49,1.82-2.33,4.15,4.32,3,7.64,3.49" class="D F"/><path d="M224.69 285.4l-5.55 2.08 22.76 18.87 2.62-5.17-19.83-15.78z" class="H"/><g class="F"><path d="M237.12,308.06l-9.64-6.82s-2.49-7.64-.83-7.8,1.5,5.81,1.5,5.81l1.49,1.16s-.66-5.48.17-5.65,1.16,1.17,1.33,2.16,1,3.66,1,3.66l1.17.66a35.45,35.45,0,0,1-.17-4.65c.17-.83,1.33-.33,1.5.83s1.33,5.82,1.33,5.82,2-5.65,2.49-4.16-.17,4.66-.17,4.66,4.65,2.82,5,4.32" class="D"/><path d="M236 303.24s2.42 5.73 3.68 6.48m-6.38-8.48a46.27 46.27 0 0 0 1.06 5m-4.72-5.83a6.1 6.1 0 0 0 1.7 3.28" class="E"/></g></g><use xlink:href="#S" class="D"/><g clip-path="url(#G)"><path d="M284.36 303.41c5.1-1.81 12.31-4.72 14.19-7.23 3-4 20.5-30 20.5-30a29 29 0 0 1 1.31 10.14c-3.37 4.56-21 28.18-24.92 28.78-1.21.18-5 .84-10 1.66a28.56 28.56 0 0 0-1.08-3.35zM377.58 251c-3.81-4.7-9.34-7.77-15.51-9.64-5.61 27.95-12.22 69.35-16.52 73.29-6 5.5-15 8.5-8.27 8.77s7.77-1.77 7.77 1.73a14.24 14.24 0 0 1-.61 4.81 18.82 18.82 0 0 1 2.18-.11c21 .29 31.25-7 31.25-7l8.47-45.56c1.17-9.35 1.17-13.99-8.76-26.29z" class="K"/><path d="M318.39 263.18l2.53 12.38-5.53-15.38" class="B C E F"/></g><g class="B C"><use xlink:href="#S" class="E"/><path d="M357.43 356.45s15.65-.41 24.23-14.6c6.72-11.09 0-22.19-11.38-23.36s-19.22 8.59-29.5 14c-21 11.09-38.84 12.26-50.52 13.72s-9.64 2.92 1.75 7 43.51 8.5 65.42 3.24z" class="H"/></g><g class="E F B"><path d="M317.39,343.18s16.3-4.69,30.4-13.59" class="I"/><path d="M357.43,356.45s12.26-4.08,19-19.56" class="C"/></g><path d="M262.52,310.9s-5.84-1.46-10.22,6.42-.88,17.23,10.8,26S306,357,306.9,357s3.8-12,3.8-12l-38.84-27.45" class="B C F H"/><path d="M280.66 323.85l-3.27-2.67m24.5 20l-17.36-14.17" class="E I B F"/><use xlink:href="#T" class="D"/><g clip-path="url(#H)"><use xlink:href="#T" class="K"/></g><g class="B C"><use xlink:href="#T" class="E"/><path d="M306.32 341l-6.13 15.77a92.19 92.19 0 0 0 9.34 1.46c2.05 0 4.38-13.15 4.38-14s-7.59-3.23-7.59-3.23z" class="D"/></g><use xlink:href="#U" class="G"/><g clip-path="url(#I)"><path d="M415.14 317.68h-7.67a15.25 15.25 0 0 1 15.25 15.25v87.5a15.25 15.25 0 0 1-15.25 15.25h20.27a2.65 2.65 0 0 0 2.65-2.65v-100.1a15.25 15.25 0 0 0-15.25-15.25z" class="J"/></g><g class="B C"><use xlink:href="#U" class="E"/><path d="M319.75,201.39s-12.85,3.79-8.76,8.17,16.36,2.34,16.36,2.34Z" class="H"/><path d="M333.48,242.27s7.88,17.81,9.64,14.31,2-20.73,2-20.73Z" class="E"/></g><use xlink:href="#V" class="D"/><g clip-path="url(#J)"><use xlink:href="#W" class="G"/><use xlink:href="#W" opacity=".5" class="D"/></g><g class="B C E"><use xlink:href="#V"/><path d="M324 223.16l-.26 2.34s3.37 1 4.15-.26m-4.37-3.52s1.78-3 5.15-.12m-1.82 4.42l-1.81.77" class="F"/></g><path d="M332.9 193.21s-16.07 1.46-16.07 9S337.72 223 337.72 223l3.64 77.67h25.41l-1.17-92.29c0-8.47-17.52-17.8-32.7-15.17z" class="B C H"/><g class="E F I B"><path d="M337.72 223s24.33 19 27.33 38.34M352 276.69q-.07 1.81-.24 3.66m-8.37-51.67A123.37 123.37 0 0 1 352 271m-7.61-67s12.12 7.92 18.25 25.47"/><path d="M363.92 233.63l1.13 5.05"/></g><use xlink:href="#X" class="D"/><g clip-path="url(#K)"><path d="M377.81 274.09c-7.61 3-33.47 38-33.47 38s-.61 2.76-1.13 6.49c1.78 4.2 4.55 5.74 8.08 6 3.34.26 27.46-34 34.42-46.68-.33-1.78-1.71-6.27-7.9-3.81z" class="K"/></g><use xlink:href="#X" class="B C E F"/><use xlink:href="#Y" class="D"/><g clip-path="url(#L)"><use xlink:href="#Z" class="G"/><use xlink:href="#Z" opacity=".5" class="D"/></g><use xlink:href="#Y" class="B C E F"/><use xlink:href="#a" class="D"/><g clip-path="url(#M)"><path d="M329.13 256.59c0 2.3 10.18 55.23 16.65 71.7a3.37 3.37 0 0 0 2 1.3s6-4.24 7.47-8.62l-1.3-9.45c-2-7-15.22-42.56-15.22-44.72 0-2.34.58-19.86.58-19.86l-1.17-1.75s-9.01 8.74-9.01 11.4z" class="K"/></g><use xlink:href="#a" class="B C E F"/></svg>