<svg xmlns="http://www.w3.org/2000/svg" width="800" height="800" viewBox="0 0 256 256" preserveAspectRatio="xMidYMid"><path d="m119.617.069-3.879.35c-36.361 3.278-70.419 22.894-91.99 53.044-12.012 16.764-19.694 35.78-22.597 55.921C.125 116.415 0 118.492 0 128.025s.125 11.61 1.151 18.64c6.957 48.065 41.165 88.448 87.561 103.411 8.308 2.677 17.067 4.504 27.026 5.605 3.879.425 20.645.425 24.524 0 17.192-1.902 31.756-6.155 46.12-13.486 2.202-1.126 2.628-1.426 2.327-1.676-.2-.15-9.584-12.736-20.845-27.948l-20.47-27.648-25.65-37.956-25.825-37.931c-.1-.025-.2 16.839-.25 37.431l-.551 38.357c-.651 1.226-1.151 1.726-2.202 2.277-.801.4-1.501.475-5.28.475h-4.329l-1.151-.726a4.68 4.68 0 0 1-1.677-1.827l-.526-1.126.05-50.167.075-50.192.776-.976c.4-.525 1.251-1.201 1.852-1.526 1.026-.5 1.426-.55 5.756-.55 5.105 0 5.956.2 7.282 1.651.375.4 14.264 21.318 30.88 46.514l50.499 76.488 20.27 30.7 1.026-.676c9.084-5.905 18.693-14.312 26.301-23.069 16.191-18.59 26.626-41.259 30.129-65.429 1.026-7.031 1.151-9.108 1.151-18.64s-.125-11.61-1.151-18.64c-6.957-48.065-41.165-88.448-87.561-103.411-8.183-2.652-16.891-4.479-26.651-5.58-2.402-.25-18.943-.525-21.021-.325zm52.401 77.414c1.201.6 2.177 1.751 2.527 2.952.2.651.25 14.562.2 45.913l-.075 44.987-7.933-12.16-7.958-12.16v-32.702l.25-33.603c.4-1.401 1.276-2.502 2.477-3.153 1.026-.525 1.401-.575 5.33-.575 3.704 0 4.354.05 5.18.5z"/></svg>