<?xml version="1.0" encoding="iso-8859-1"?>
<svg version="1.1" id="Layer_1" xmlns="http://www.w3.org/2000/svg" xmlns:xlink="http://www.w3.org/1999/xlink" 
	 viewBox="0 0 512 512" xml:space="preserve">
<path style="fill:#415E72;" d="M0,355.2v-324c0.104-5.704,4.696-10.296,10.4-10.4h491.2c5.704,0.104,10.296,4.696,10.4,10.4v324H0z"
	/>
<g>
	<path style="fill:#CFDCE5;" d="M512,355.2v41.6c-0.104,5.704-4.696,10.296-10.4,10.4H10.4c-5.704-0.104-10.296-4.696-10.4-10.4
		v-41.6H512z"/>
	<rect x="146.4" y="480.8" style="fill:#CFDCE5;" width="219.2" height="10.4"/>
</g>
<polygon style="fill:#AEC4CE;" points="328.8,480.8 183.2,480.8 193.6,407.2 318.4,407.2 "/>
<rect x="20.8" y="41.6" style="fill:#FFFFFF;" width="470.4" height="292.8"/>
<polygon style="fill:#94A7AF;" points="318.4,407.2 193.6,407.2 187.792,448.28 320.272,420.424 "/>
<circle style="fill:#25B6D2;" cx="175.408" cy="244.512" r="51.024"/>
<circle style="fill:#E04F5F;" cx="256" cy="126.896" r="51.024"/>
<circle style="fill:#FFFFFF;" cx="336.56" cy="244.512" r="47.024"/>
<path style="fill:#AAC1CE;" d="M336.592,201.488c23.76-0.016,43.04,19.232,43.056,42.992s-19.232,43.04-42.992,43.056
	s-43.04-19.232-43.056-42.992c0-0.008,0-0.024,0-0.032c0.024-23.752,19.272-43,43.024-43.024 M336.624,193.488
	c-28.176,0-51.024,22.848-51.024,51.024s22.848,51.024,51.024,51.024s51.024-22.848,51.024-51.024l0,0
	C387.648,216.336,364.8,193.488,336.624,193.488z"/>
</svg>